<svg width="24" height="24" viewBox="0 0 24 24" fill="none" xmlns="http://www.w3.org/2000/svg">
<mask id="mask0_14793_3922" style="mask-type:alpha" maskUnits="userSpaceOnUse" x="0" y="0" width="24" height="24">
<rect width="24" height="24" fill="#D9D9D9"/>
</mask>
<g mask="url(#mask0_14793_3922)">
<path d="M14.1314 3H9.89777C8.96097 3 8.19531 3.75665 8.19531 4.69345V5.54018C8.19531 6.47698 8.95196 7.23363 9.88876 7.23363H14.1314C15.0682 7.23363 15.8248 6.47698 15.8248 5.54018V4.69345C15.8339 3.75665 15.0682 3 14.1314 3Z" fill="#019B5B"/>
<path d="M16.7298 5.53928C16.7298 6.97151 15.5588 8.14251 14.1266 8.14251H9.89297C8.46074 8.14251 7.28974 6.97151 7.28974 5.53928C7.28974 5.03485 6.74928 4.71958 6.29889 4.95378C5.0288 5.62936 4.16406 6.97151 4.16406 8.51183V16.9881C4.16406 19.204 5.97461 21.0145 8.19051 21.0145H15.8291C18.045 21.0145 19.8555 19.204 19.8555 16.9881V8.51183C19.8555 6.97151 18.9908 5.62936 17.7207 4.95378C17.2703 4.71958 16.7298 5.03485 16.7298 5.53928ZM15.0184 12.6644L11.4153 16.2675C11.2802 16.4026 11.109 16.4656 10.9379 16.4656C10.7667 16.4656 10.5956 16.4026 10.4605 16.2675L9.1093 14.9163C8.84807 14.6551 8.84807 14.2227 9.1093 13.9615C9.37052 13.7003 9.80289 13.7003 10.0641 13.9615L10.9379 14.8352L14.0635 11.7096C14.3248 11.4483 14.7571 11.4483 15.0184 11.7096C15.2796 11.9708 15.2796 12.4032 15.0184 12.6644Z" fill="#019B5B"/>
</g>
</svg>
