<svg width="16" height="17" viewBox="0 0 16 17" fill="none" xmlns="http://www.w3.org/2000/svg">
<path d="M0 8.5C0 4.08172 3.58172 0.5 8 0.5V0.5C12.4183 0.5 16 4.08172 16 8.5V8.5C16 12.9183 12.4183 16.5 8 16.5V16.5C3.58172 16.5 0 12.9183 0 8.5V8.5Z" fill="#52ABF9"/>
<path d="M9.23683 11.0506V12.2607C9.23683 12.3543 9.20262 12.4354 9.13419 12.5038C9.06576 12.5722 8.98472 12.6064 8.89108 12.6064H7.50809C7.41445 12.6064 7.33342 12.5722 7.26499 12.5038C7.19656 12.4354 7.16235 12.3543 7.16235 12.2607V11.0506C7.16235 10.9569 7.19656 10.8759 7.26499 10.8075C7.33342 10.739 7.41445 10.7048 7.50809 10.7048H8.89108C8.98472 10.7048 9.06576 10.739 9.13419 10.8075C9.20262 10.8759 9.23683 10.9569 9.23683 11.0506ZM9.3989 5.34575L9.24764 9.49472C9.24403 9.58836 9.20712 9.66939 9.13689 9.73782C9.06666 9.80625 8.98472 9.84047 8.89108 9.84047H7.50809C7.41445 9.84047 7.33252 9.80625 7.26229 9.73782C7.19206 9.66939 7.15514 9.58836 7.15154 9.49472L7.00028 5.34575C6.99668 5.25211 7.02819 5.17107 7.09482 5.10264C7.16145 5.03421 7.24158 5 7.33522 5H9.06396C9.1576 5 9.23773 5.03421 9.30436 5.10264C9.37099 5.17107 9.4025 5.25211 9.3989 5.34575Z" fill="white"/>
</svg>
