<svg width="25" height="25" viewBox="0 0 25 25" fill="none" xmlns="http://www.w3.org/2000/svg">
<mask id="mask0_14793_6966" style="mask-type:alpha" maskUnits="userSpaceOnUse" x="0" y="0" width="25" height="25">
<rect x="0.25" y="0.664062" width="24" height="24" fill="#D9D9D9"/>
</mask>
<g mask="url(#mask0_14793_6966)">
<path d="M17.2249 16.0499L13.4976 12.6641H10.9974L7.27018 16.0499C6.22766 16.991 5.88631 18.4394 6.39373 19.7495C6.90115 21.0503 8.13741 21.8899 9.53051 21.8899H14.9645C16.3668 21.8899 17.5939 21.0503 18.1013 19.7495C18.6087 18.4394 18.2674 16.991 17.2249 16.0499ZM13.9312 18.3287H10.573C10.2224 18.3287 9.94567 18.0427 9.94567 17.7014C9.94567 17.36 10.2317 17.074 10.573 17.074H13.9312C14.2818 17.074 14.5586 17.36 14.5586 17.7014C14.5586 18.0427 14.2726 18.3287 13.9312 18.3287Z" fill="#019B5B"/>
<path d="M18.1122 5.57789C17.6048 4.27705 16.3685 3.4375 14.9754 3.4375H9.53218C8.13908 3.4375 6.90282 4.27705 6.3954 5.57789C5.89721 6.88796 6.23856 8.33642 7.28108 9.27745L11.0083 12.6633H13.5085L17.2357 9.27745C18.269 8.33642 18.6104 6.88796 18.1122 5.57789ZM13.9329 8.26261H10.5747C10.2241 8.26261 9.94734 7.97661 9.94734 7.63525C9.94734 7.2939 10.2333 7.0079 10.5747 7.0079H13.9329C14.2835 7.0079 14.5603 7.2939 14.5603 7.63525C14.5603 7.97661 14.2743 8.26261 13.9329 8.26261Z" fill="#019B5B"/>
</g>
</svg>
